<?xml version="1.0" encoding="UTF-8"?>
<svg id="Calque_2" data-name="Calque 2" xmlns="http://www.w3.org/2000/svg" viewBox="0 0 210.35 59.25">
  <defs>
    <style>
      .cls-1 {
        fill: #FFF7EB;
        stroke-width: 0px;
      }
    </style>
  </defs>
  <g id="Calque_1-2" data-name="Calque 1">
    <g>
      <path class="cls-1" d="M47.17.08c5.06.53,6.47,6.08,4.43,10.36-5.3,11-12.9,23.4-17.72,32.3,5.27-7.93,14.04-20.57,21.14-28.02,1.13-1.18,3.92.97,3.38,2.01-4.14,7.79-8.51,16.31-11.73,24.54,6.51-9.32,21.99-30.96,27.31-34.27,1.36-.85,4.43.97,3.84,2.04-3.17,5.86-22.55,41.84-16.5,46.19.05.56-.51.92-1.08.67-8.85-4.67,9.69-39.83,12.57-45.85-7.62,6.6-27.99,36.06-28.05,36.17-.59.86-2.36-.58-2.24-1.77,1.52-7.05,7.41-18.68,10.49-25.2-10.44,11.99-22.66,31.26-22.71,31.32-.1.17-.29.27-.48.28-.71.2-2.6-1.47-2.09-2.6,7.68-16.97,11.79-20.03,19.95-38.31,1.06-2.38,2.49-6.63-1.22-7.21C23.56-.89-8.22,55.86,4.43,57.2c5.97.99,17.58-13.74,21.58-19.9.62-.67,2.28,1.94,1.65,2.84-2.9,5.89-18.25,22.03-24.39,18.66C-10.28,51.33,21.14.06,45.45,0c.57,0,1.16.02,1.73.08Z"/>
      <path class="cls-1" d="M81.13,31.36c.14.11.25.2.32.3.48.33.67.88.17,1.74-.81,1.47-2.33,4.23-2.86,5.64-1.27,3.46,7.97-4.14,8.62-4.72,1.13-.92,1.92.03.79.96-2.19,2.05-6.3,5.19-9.08,6.32-1.6.69-3.3-1.91-2.94-3.17.3-1.13.83-2.59,1.29-3.84-2.03,2.99-4.86,6.99-6.36,7.21-1.1.17-3.55-1.55-3.28-2.74.06-4.09,2.89-9.67,7.89-9.65,1.59,0,3.41.58,5.44,1.96ZM71.94,38.72c2.11-1.94,5.51-6.19,6.76-7.74-.37-.13-.73-.17-1.08-.17-4.62,0-7.89,9.95-5.68,7.91Z"/>
      <path class="cls-1" d="M92.16,32.19c-.86,1.47-3.06,5.44-3.62,6.85-1.36,3.46,7.85-4.14,8.52-4.72,1.16-.92,1.92.03.76.96-2.24,2.05-6.2,5.19-9,6.32-1.62.69-3.25-1.91-2.87-3.17.76-2.52,3.7-8.78,3.7-8.78.1-.19.35-.27.68-.27,1.09,0,2.94.94,1.82,2.81ZM94.76,25.5c-.52,1.83-3.09,2.41-3.05.27.02-.69.71-1.32,1.55-1.38.05-.02.1-.02.14-.02.79,0,1.52.5,1.35,1.13Z"/>
      <path class="cls-1" d="M105.65,30.74c.4,1.03-.09,2.46-.16,2.95-.1.69-2.52.94-2.09-.77.19-.75,1.06-3.09.25-2.88-.94.27-1.81,1.24-2.54,2.48-.98,1.74.11,3.35,1.05,4.92,2.46-.45,5.33-1.44,8.33-3.46.29-.19.68-.11.87.17.21.28.13.67-.16.86-3,2.01-5.9,3.06-8.41,3.56.27.61.44,1.22.37,1.82-.29,1.96-2.76,4.18-4.93,3.32-1.49-.61-1.72-3.6-2.89-5.3-.11-.17-.16-.36-.1-.55.1-.34.44-.52.78-.42,0,0,.43.38,2.99.31-.89-1.93-2.19-3.84-2.16-4.36.14-1.94,2.95-4.43,4.89-4.79.11-.02.22-.02.33-.02,1.3,0,3.17,1.14,3.59,2.16ZM99.44,41.71c.49-.67.4-1.66.03-2.74-1.21.05-1.33.09-2.14,0,.79,2.11,1.33,3.31,2.11,2.74Z"/>
      <path class="cls-1" d="M127.45,28.64c.46,1.86-1,5.34-1.6,6.58,1.94-2.43,4.3-4.78,6.41-5.11,1.14-.16,3.32.89,2.35,2.52-.78,1.28-2.21,4.78-2.67,6-1.13,3.02,7.08-3.59,7.71-4.11,1.08-.8,1.92.03.83.83-2.11,1.79-5.36,4.53-8.09,5.5-1.57.6-3.38-1.66-3.08-2.76.41-1.54,1.52-4.69,2.16-6.44-3.68,1.74-8.12,9.37-8.39,9.82-.63.72-2.05.08-2.33-.88-.06-.23-.06-.45,0-.64.54-1.79,4.46-9.61,3.97-10.75-.52-1.21-3.68.22-5.54,1.19,5.22,2.23-1.13,11.33-5.63,11.41-.67,0-1.35-.36-2.05-.71-1.44-.74-2.6-2.12-2.55-3.54.11-3.56,2.14-8.15,6.14-8.31.59-.03,1.41.31,2.16.8.52-.31,5.05-2.98,7.93-2.96,1.13,0,2,.42,2.28,1.54ZM115.47,31.76c-1.86,2.07-2.94,6.39-2.57,7.96.9,4.01,10.98-7.02,4.97-8.38-1.67,1.1-2.32,1.16-2.4.42Z"/>
      <path class="cls-1" d="M164.63,12.3c-.02.06-.05.11-.08.17-.05.08-.11.16-.16.25-.14.28-.3.56-.46.85-.73,1.46-4.35,8.51-4.62,9.06,6.81-.27,15.76-.39,27.18-.13.35.02.62.3.62.64-.02.33-.3.61-.65.61-11.77-.28-20.91-.14-27.77.14-2.32,4.76-4.52,9.62-6.65,14.46-2.63,6.05-6.39,14.04-2.44,16.89.05.56-.51.92-1.06.66-5.27-2.77-1.7-13.08.83-19.01.54-1.25,3.11-6.86,5.93-12.85-9.38.49-13.42,1.21-13.46,1.22-.33.05-.67-.17-.73-.52-.05-.34.17-.66.52-.72.02,0,4.3-.77,14.26-1.27,2.32-4.9,4.71-9.89,6.24-12.83.09-.05.21-.08.35-.06.98,0,2.75,1.24,2.14,2.43Z"/>
      <path class="cls-1" d="M162.3,31.58c-.32.52-1.05,2.01-1.84,3.71,1.97-2.79,4.35-5.47,6.43-5.8.81-.13,2.63,1.41,2.82,2.16.29,1.08-.38,2.41-.49,2.9-.17.67-3.11.58-2.49-1.07.27-.71,1.41-2.91.59-2.8-3.44.42-8.46,9.24-10.01,12.19.02.16-1.78.5-2.3-1.21-.05-.24-.05-.45,0-.64.67-2.18,4.68-11.66,4.68-11.66.08-.16.35-.24.68-.24,1.08,0,2.95.81,1.94,2.44Z"/>
      <path class="cls-1" d="M183.45,30.63c-.83,1.52-2.92,6.02-5.24,10.61,2.87-1.88,5.79-4.37,8.38-7.68.21-.28.62-.33.89-.13.27.2.32.6.11.86-3.2,4.12-6.93,7.02-10.44,9.04-2.28,4.47-6.51,12.99-7.89,14.17-.6.52-2.27.96-3.13.63-1.33-.5-4.05-10.59-4.54-12.56-.13-.52.08-1.22.84-1.46,1.38-.42,6.59,1.75,10.6-.04,1.13-2.33,2.36-4.92,3.49-7.32-2.03,2.71-4.17,5.05-5.36,4.94-1.36-.13-2.52-2.19-2.19-3.28.76-2.52,3.7-8.78,3.7-8.78.37-.75,3.95.09,2.52,2.54-.86,1.47-3.06,5.44-3.62,6.85-.14.36-.17.6-.14.74.3.88,6.73-7.02,8.63-10.45.14-.3.29-.55.38-.77.06-.11.13-.22.16-.31.1-.05.22-.06.37-.06,1.08,0,3.13,1.27,2.48,2.46ZM163.18,45.21c.33,1.97,2.92,10.98,3.62,11.07.33.03,3.63-6.96,5.39-10.51-3.73,1.5-8.07-.7-9.02-.56Z"/>
      <path class="cls-1" d="M198.22,31.36c.14.11.25.2.32.3.48.33.67.88.17,1.74-.81,1.47-2.33,4.23-2.86,5.64-1.27,3.46,7.97-4.14,8.62-4.72,1.13-.92,1.92.03.79.96-2.19,2.05-6.3,5.19-9.08,6.32-1.6.69-3.3-1.91-2.94-3.17.3-1.13.83-2.59,1.29-3.84-2.03,2.99-4.86,6.99-6.36,7.21-1.09.17-3.55-1.55-3.28-2.74.06-4.09,2.89-9.67,7.89-9.65,1.59,0,3.41.58,5.44,1.96ZM189.03,38.72c2.11-1.94,5.51-6.19,6.76-7.74-.36-.13-.73-.17-1.08-.17-4.62,0-7.89,9.95-5.68,7.91Z"/>
      <path class="cls-1" d="M210.26,40.41c-.25.8-1.11,1.36-1.9,1.27-.79-.08-1.08-1.07-.83-1.86.27-.81.9-1.16,1.51-1.16.83-.02,1.59.66,1.22,1.76Z"/>
    </g>
  </g>
</svg>