<?xml version="1.0" encoding="UTF-8"?>
<svg id="Calque_2" data-name="Calque 2" xmlns="http://www.w3.org/2000/svg" viewBox="0 0 264.2 261.66">
  <defs>
    <style>
      .cls-1 {
        fill: none;
      }

      .cls-1, .cls-2 {
        stroke-width: 0px;
      }

      .cls-2 {
        fill: #3c2413;
      }
    </style>
  </defs>
  <g id="Calque_1-2" data-name="Calque 1">
    <g>
      <g>
        <g>
          <path class="cls-2" d="M94.39,72.91c2.34.05,4.28,2.07,4.2,4.38-.08,2.35-2.04,4.17-4.44,4.13-2.27-.04-4.14-1.99-4.12-4.28.02-2.33,2.03-4.27,4.36-4.22Z"/>
          <path class="cls-2" d="M190.7,72.91c-2.34.05-4.28,2.07-4.2,4.38.08,2.35,2.04,4.17,4.44,4.13,2.27-.04,4.14-1.99,4.12-4.28-.02-2.33-2.03-4.27-4.36-4.22Z"/>
          <path class="cls-2" d="M94.39,110.26c2.34-.05,4.28-2.07,4.2-4.38-.08-2.35-2.04-4.17-4.44-4.13-2.27.04-4.14,1.99-4.12,4.28.02,2.33,2.03,4.27,4.36,4.22Z"/>
          <path class="cls-2" d="M190.7,110.26c-2.34-.05-4.28-2.07-4.2-4.38.08-2.35,2.04-4.17,4.44-4.13,2.27.04,4.14,1.99,4.12,4.28-.02,2.33-2.03,4.27-4.36,4.22Z"/>
          <g>
            <path class="cls-2" d="M138.5,60.34c-4.99,12.74-12.07,23.67-23.25,30.92-.27.17-.53.34-.8.5-1.58.99-3.24,1.9-4.98,2.73-.32.16-.65.31-.98.45-.56.26-1.13.5-1.7.74-5.08,1.97-9.07,3.01-12.98,3.51h-.02c-2.4.31-4.77.41-7.36.41-6.76,0-15.23-.93-20.29-3.92-.53-.27-1.05-.55-1.55-.85-.25-.14-.49-.28-.74-.43-1.33-.79-2.58-1.68-3.74-2.65-.2-.17-.4-.33-.59-.5-2.39-2.09-4.4-4.57-5.91-7.58-6.95-13.87-4.37-30.05,7.54-39.39,5.26-4.13,11.47-5.06,18-4.99,2.61.02,4.53.08,7.29.1h.13v4.44c-2.82-.06-5.13-.35-7.9.01-22.57,1.3-28.13,23.95-19.54,38.78,1.27,2.2,2.87,4,4.72,5.49.24.19.49.38.74.57,1.36,1.01,2.84,1.86,4.4,2.57h0c.38.17.77.34,1.16.5,3.15,1.27,6.57,2.04,10.02,2.46,7.51.95,14.69.07,21.48-2.46.43-.16.86-.33,1.29-.5,1.87-.77,3.72-1.66,5.54-2.68.32-.18.65-.37.97-.56h0c.22-.13.43-.26.65-.39,8.55-5.19,14.47-12.82,19.18-21.48,2.1-3.86,3.84-7.83,5.29-11.91l3.91,6.1Z"/>
            <path class="cls-2" d="M152.77,29.04c-1.69,1.52-4.13,4.14-6.2,8-1.46,2.72-2.74,6.06-3.43,10.07h0c-.26,1.51-.44,3.11-.51,4.81.07-1.75.01-3.4-.17-4.95-.49-4.25-1.84-7.75-3.46-10.55h0c-2.05-3.55-4.55-5.98-6.31-7.41-.72-.58-.59-1.74.26-2.1,2.4-1.03,17.06-.95,19.42.03.87.36,1.1,1.47.4,2.1Z"/>
            <path class="cls-2" d="M142.59,65.95s-5.48-37.04-12.53-31.1c-6.65,5.59,10.45,12.36,12.53,31.1Z"/>
            <path class="cls-2" d="M102.9,43.85c6.82,1.09,13.4,1.62,13.4-2.78,0-4.66-6.85-3.26-13.41-1.74v4.52Z"/>
            <path class="cls-2" d="M146.76,60.34c4.99,12.74,12.07,23.67,23.25,30.92.27.17.53.34.8.5,1.58.99,3.24,1.9,4.98,2.73.32.16.65.31.98.45.56.26,1.13.5,1.7.74,5.08,1.97,9.07,3.01,12.98,3.51h.02c2.4.31,4.77.41,7.36.41,6.76,0,15.23-.93,20.29-3.92.53-.27,1.05-.55,1.55-.85.25-.14.49-.28.74-.43,1.33-.79,2.58-1.68,3.74-2.65.2-.17.4-.33.59-.5,2.39-2.09,4.4-4.57,5.91-7.58,6.95-13.87,4.37-30.05-7.54-39.39-5.26-4.13-11.47-5.06-18-4.99-2.61.02-4.53.08-7.29.1h-.13s0,4.44,0,4.44c2.82-.06,5.13-.35,7.9.01,22.57,1.3,28.13,23.95,19.54,38.78-1.27,2.2-2.87,4-4.72,5.49-.24.19-.49.38-.74.57-1.36,1.01-2.84,1.86-4.4,2.57h0c-.38.17-.77.34-1.16.5-3.15,1.27-6.57,2.04-10.02,2.46-7.51.95-14.69.07-21.48-2.46-.43-.16-.86-.33-1.29-.5-1.87-.77-3.72-1.66-5.54-2.68-.32-.18-.65-.37-.97-.56h0c-.22-.13-.43-.26-.65-.39-8.55-5.19-14.47-12.82-19.18-21.48-2.1-3.86-3.84-7.83-5.29-11.91l-3.91,6.1Z"/>
            <path class="cls-2" d="M182.36,43.85c-6.82,1.09-13.4,1.62-13.4-2.78,0-4.66,6.85-3.26,13.41-1.74v4.52Z"/>
            <path class="cls-2" d="M142.59,65.95s5.48-37.04,12.53-31.1c6.65,5.59-10.45,12.36-12.53,31.1Z"/>
            <g>
              <path class="cls-2" d="M142.7,15.97c-2.2-3.58-5.35-9.87-11.91-13.24-6.26-3.21-11.96-3.28-19.63-1.81-15.31,2.95-20.63,13.64-21.43,25.11-.26,3.75-.76,44.52-.76,44.52,0,.52.63.78.99.4.88-.92,2.39-1.95,4.73-1.95,2.03,0,3.35.96,4.14,1.85.35.39.99.14,1-.38,0,0,.47-44.3,2.79-51.74,2.46-7.89,6.9-11.2,14.52-11.14,7.05.06,12.12,5.74,15.06,12.3.44.97,1.45,1.55,2.51,1.42,2.99-.35,6.66-.35,7.99-.35v-5Z"/>
              <path class="cls-2" d="M142.56,15.97c2.2-3.58,5.35-9.87,11.91-13.24,6.26-3.21,11.96-3.28,19.63-1.81,15.31,2.95,20.63,13.64,21.43,25.11.26,3.75.76,44.52.76,44.52,0,.52-.63.78-.99.4-.88-.92-2.39-1.95-4.73-1.95-2.03,0-3.35.96-4.14,1.85-.35.39-.99.14-1-.38,0,0-.47-44.3-2.79-51.74-2.46-7.89-6.9-11.2-14.52-11.14-7.05.06-12.12,5.74-15.06,12.3-.44.97-1.45,1.55-2.51,1.42-2.99-.35-6.66-.35-7.99-.35v-5Z"/>
              <path class="cls-2" d="M139.91,11.41c1.71,2.94,3.56,3.21,5.6,0l2.19,3.72-5.35,2.71-2.71-4.91.28-1.52Z"/>
            </g>
          </g>
          <g>
            <path class="cls-2" d="M132.49,154.95c1.69-1.52,4.13-4.14,6.2-8,1.46-2.72,2.74-6.06,3.43-10.07h0c.26-1.51.44-3.11.51-4.81-.07,1.75-.01,3.4.17,4.95.49,4.25,1.84,7.75,3.46,10.55h0c2.05,3.55,4.55,5.98,6.31,7.41.72.58.59,1.74-.26,2.1-2.4,1.03-17.06.95-19.42-.03-.87-.36-1.1-1.47-.4-2.1Z"/>
            <path class="cls-2" d="M142.67,118.05s5.48,37.04,12.53,31.1c6.65-5.59-10.45-12.36-12.53-31.1Z"/>
            <path class="cls-2" d="M182.36,140.15c-6.82-1.09-13.4-1.62-13.4,2.78,0,4.66,6.85,3.26,13.41,1.74v-4.52Z"/>
            <path class="cls-2" d="M102.9,140.15c6.82-1.09,13.4-1.62,13.4,2.78,0,4.66-6.85,3.26-13.41,1.74v-4.52Z"/>
            <path class="cls-2" d="M142.67,118.05s-5.48,37.04-12.53,31.1c-6.65-5.59,10.45-12.36,12.53-31.1Z"/>
            <g>
              <path class="cls-2" d="M142.56,168.02c2.2,3.58,5.35,9.87,11.91,13.24,6.26,3.21,11.96,3.28,19.63,1.81,15.31-2.95,20.63-13.64,21.43-25.11.26-3.75.76-44.52.76-44.52,0-.52-.63-.78-.99-.4-.88.92-2.39,1.95-4.73,1.95-2.03,0-3.35-.96-4.14-1.85-.35-.39-.99-.14-1,.38,0,0-.47,44.3-2.79,51.74-2.46,7.89-6.9,11.2-14.52,11.14-7.05-.06-12.12-5.74-15.06-12.3-.44-.97-1.45-1.55-2.51-1.42-2.99.35-6.66.35-7.99.35v5Z"/>
              <path class="cls-2" d="M142.7,168.02c-2.2,3.58-5.35,9.87-11.91,13.24s-11.96,3.28-19.63,1.81c-15.31-2.95-20.63-13.64-21.43-25.11-.26-3.75-.76-44.52-.76-44.52,0-.52.63-.78.99-.4.88.92,2.39,1.95,4.73,1.95,2.03,0,3.35-.96,4.14-1.85.35-.39.99-.14,1,.38,0,0,.47,44.3,2.79,51.74,2.46,7.89,6.9,11.2,14.52,11.14,7.05-.06,12.12-5.74,15.06-12.3.44-.97,1.45-1.55,2.51-1.42,2.99.35,6.66.35,7.99.35v5Z"/>
              <path class="cls-2" d="M145.35,172.58c-1.71-2.94-3.56-3.21-5.6,0l-2.19-3.72,5.35-2.71,2.71,4.91-.28,1.52Z"/>
            </g>
          </g>
        </g>
        <g>
          <path class="cls-2" d="M105.56,87.41c-1.64,1.86-6.97,3.36-6.97,3.36-5.9-1.75-12.08-2.27-18.49-1.46-2.5.32-4.99.8-7.38,1.53,0,0-3.12-.75-5.61-2.99,3.52-1.52,10.71-3.93,19.23-3.93,2.58,0,4.95.11,7.36.42h.02c3.61.46,7.29,1.38,11.84,3.08Z"/>
          <path class="cls-2" d="M87.04,139.7v4.44h-.13c-2.76.03-5.23.08-7.84.11-6.53.07-12.74-.87-18-4.99-11.9-9.35-14.49-25.53-7.54-39.39,1.28-2.56,2.92-4.73,4.85-6.6.13.14,2.29,2.34,4.41,3-1.44,1.31-2.7,2.85-3.74,4.65-8.6,14.83-3.03,37.48,19.54,38.78,2.77.37,5.63.07,8.45.01Z"/>
          <path class="cls-2" d="M138.41,123.19l-3.91,6.1c-1.45-4.08-3.19-8.06-5.29-11.91-4.55-8.36-10.37-15.98-18.46-21.15.74-.23,4.28-2.09,5.77-3.24,10.26,7.23,17.14,18.08,21.89,30.2Z"/>
          <path class="cls-2" d="M132.55,154.49c1.69-1.52,4.13-4.14,6.2-8,1.46-2.72,2.74-6.06,3.43-10.07h0c.26-1.51.44-3.11.51-4.81-.07,1.75-.01,3.4.17,4.95.49,4.25,1.84,7.75,3.46,10.55h0c2.05,3.55,4.55,5.98,6.31,7.41.72.58.59,1.74-.26,2.1-2.4,1.03-17.06.95-19.42-.03-.87-.36-1.1-1.47-.4-2.1Z"/>
          <path class="cls-2" d="M142.74,117.59s5.48,37.04,12.53,31.1c6.65-5.59-10.45-12.36-12.53-31.1Z"/>
          <path class="cls-2" d="M142.74,117.59s-5.48,37.04-12.53,31.1c-6.65-5.59,10.45-12.36,12.53-31.1Z"/>
          <path class="cls-1" d="M58.38,93.26h0"/>
          <path class="cls-1" d="M116.96,93.15c-.06.07-.12.13-.19.2"/>
        </g>
        <g>
          <path class="cls-2" d="M179.91,87.41c1.64,1.86,6.97,3.36,6.97,3.36,5.9-1.75,12.08-2.27,18.49-1.46,2.5.32,4.99.8,7.38,1.53,0,0,3.12-.75,5.61-2.99-3.52-1.52-10.71-3.93-19.23-3.93-2.58,0-4.95.11-7.36.42h-.02c-3.61.46-7.29,1.38-11.84,3.08Z"/>
          <path class="cls-2" d="M198.43,139.7v4.44s.13,0,.13,0c2.76.03,5.23.08,7.84.11,6.53.07,12.74-.87,18-4.99,11.9-9.35,14.49-25.53,7.54-39.39-1.28-2.56-2.92-4.73-4.85-6.6-.13.14-2.29,2.34-4.41,3,1.44,1.31,2.7,2.85,3.74,4.65,8.6,14.83,3.03,37.48-19.54,38.78-2.77.37-5.63.07-8.45.01Z"/>
          <path class="cls-2" d="M147.06,123.19l3.91,6.1c1.45-4.08,3.19-8.06,5.29-11.91,4.55-8.36,10.37-15.98,18.46-21.15-.74-.23-4.28-2.09-5.77-3.24-10.26,7.23-17.14,18.08-21.89,30.2Z"/>
          <path class="cls-1" d="M227.09,93.26h0"/>
          <path class="cls-1" d="M168.52,93.15c.06.07.12.13.19.2"/>
        </g>
        <path class="cls-1" d="M72.73,90.84h0"/>
        <line class="cls-1" x1="67.12" y1="87.84" x2="67.11" y2="87.84"/>
      </g>
      <g>
        <path class="cls-2" d="M59.25,187.34c6.36.67,8.13,7.64,5.56,13.01-6.66,13.82-16.2,29.38-22.26,40.56,6.62-9.96,17.64-25.84,26.55-35.19,1.42-1.48,4.92,1.22,4.25,2.52-5.2,9.78-10.68,20.49-14.73,30.82,8.17-11.71,27.62-38.89,34.3-43.04,1.71-1.06,5.56,1.22,4.82,2.56-3.99,7.36-28.32,52.55-20.73,58.02.06.71-.64,1.16-1.36.85-11.12-5.87,12.18-50.03,15.78-57.59-9.57,8.29-35.16,45.29-35.24,45.43-.74,1.08-2.97-.73-2.81-2.22,1.91-8.86,9.31-23.46,13.17-31.65-13.11,15.06-28.46,39.27-28.52,39.34-.12.22-.36.33-.6.35-.9.26-3.27-1.85-2.63-3.27,9.65-21.32,14.81-25.15,25.05-48.12,1.34-2.99,3.13-8.33-1.53-9.05-28.74-4.55-68.66,66.74-52.77,68.41,7.49,1.24,22.08-17.26,27.1-25,.78-.85,2.87,2.44,2.07,3.56-3.65,7.4-22.92,27.67-30.63,23.44-17.02-9.37,22.44-73.77,52.97-73.85.72,0,1.46.02,2.17.1Z"/>
        <path class="cls-2" d="M101.9,226.62c.18.14.32.26.4.37.6.41.84,1.1.22,2.18-1.02,1.85-2.93,5.31-3.59,7.09-1.59,4.35,10-5.2,10.82-5.92,1.41-1.16,2.41.04,1,1.2-2.75,2.58-7.91,6.51-11.4,7.93-2.01.87-4.15-2.4-3.69-3.98.38-1.42,1.04-3.25,1.61-4.82-2.55,3.76-6.1,8.78-7.99,9.05-1.38.22-4.46-1.95-4.13-3.44.08-5.14,3.63-12.14,9.9-12.12,1.99,0,4.29.73,6.84,2.46ZM90.36,235.88c2.65-2.44,6.92-7.77,8.49-9.72-.46-.16-.92-.22-1.36-.22-5.8,0-9.91,12.5-7.14,9.94Z"/>
        <path class="cls-2" d="M115.75,227.67c-1.08,1.85-3.85,6.83-4.54,8.6-1.71,4.35,9.87-5.2,10.7-5.92,1.45-1.16,2.41.04.96,1.2-2.81,2.58-7.79,6.51-11.3,7.93-2.03.87-4.09-2.4-3.61-3.98.96-3.17,4.64-11.02,4.64-11.02.12-.24.44-.33.86-.33,1.37,0,3.69,1.18,2.29,3.52ZM119.02,219.26c-.66,2.3-3.89,3.03-3.83.33.02-.87.9-1.65,1.95-1.73.06-.02.12-.02.18-.02,1,0,1.91.63,1.69,1.42Z"/>
        <path class="cls-2" d="M132.69,225.86c.5,1.3-.12,3.09-.2,3.7-.12.87-3.17,1.18-2.63-.96.24-.94,1.34-3.88.32-3.62-1.18.33-2.27,1.55-3.19,3.11-1.24,2.18.14,4.21,1.31,6.18,3.09-.57,6.7-1.81,10.46-4.35.36-.24.86-.14,1.1.22.26.35.16.85-.2,1.08-3.77,2.52-7.41,3.84-10.56,4.47.34.77.56,1.54.46,2.28-.36,2.46-3.47,5.25-6.2,4.17-1.87-.77-2.16-4.53-3.63-6.65-.14-.22-.2-.45-.12-.69.12-.43.56-.65.98-.53,0,0,.54.47,3.75.39-1.12-2.42-2.75-4.82-2.71-5.47.18-2.44,3.71-5.57,6.14-6.02.14-.02.28-.02.42-.02,1.63,0,3.99,1.44,4.5,2.72ZM124.9,239.63c.62-.85.5-2.09.04-3.44-1.51.06-1.68.12-2.69,0,.99,2.65,1.67,4.15,2.65,3.44Z"/>
        <path class="cls-2" d="M160.08,223.22c.58,2.34-1.26,6.71-2.01,8.27,2.43-3.05,5.4-6,8.05-6.42,1.43-.2,4.17,1.12,2.95,3.17-.98,1.61-2.77,6-3.35,7.54-1.41,3.8,8.89-4.51,9.69-5.16,1.36-1,2.41.04,1.04,1.04-2.65,2.24-6.74,5.69-10.16,6.91-1.97.75-4.24-2.09-3.87-3.46.52-1.93,1.91-5.88,2.71-8.09-4.62,2.18-10.2,11.77-10.54,12.34-.8.91-2.57.1-2.93-1.1-.08-.3-.08-.57,0-.81.68-2.24,5.6-12.06,4.98-13.5-.66-1.52-4.62.28-6.96,1.5,6.56,2.79-1.42,14.23-7.08,14.33-.84,0-1.69-.45-2.57-.89-1.81-.92-3.27-2.66-3.21-4.45.14-4.47,2.69-10.23,7.71-10.43.74-.04,1.77.39,2.71,1,.66-.39,6.34-3.74,9.96-3.72,1.41,0,2.51.53,2.87,1.93ZM145.03,227.14c-2.33,2.6-3.69,8.03-3.23,10,1.14,5.04,13.79-8.82,6.24-10.53-2.09,1.38-2.91,1.46-3.01.53Z"/>
        <path class="cls-2" d="M206.77,202.69c-.02.08-.06.14-.1.22-.06.1-.14.2-.2.31-.18.35-.38.71-.58,1.06-.92,1.83-5.46,10.69-5.8,11.38,8.55-.33,19.79-.49,34.14-.16.44.02.78.37.78.81-.02.41-.38.77-.82.77-14.79-.35-26.27-.18-34.88.18-2.91,5.98-5.68,12.08-8.35,18.17-3.31,7.6-8.03,17.63-3.07,21.22.06.71-.64,1.16-1.34.83-6.62-3.48-2.13-16.43,1.04-23.87.68-1.57,3.91-8.62,7.45-16.14-11.78.61-16.86,1.52-16.9,1.54-.42.06-.84-.22-.92-.65-.06-.43.22-.83.66-.9.02,0,5.4-.96,17.92-1.59,2.91-6.16,5.92-12.42,7.83-16.12.12-.06.26-.1.44-.08,1.24,0,3.45,1.55,2.69,3.05Z"/>
        <path class="cls-2" d="M203.85,226.9c-.4.65-1.32,2.52-2.31,4.66,2.47-3.5,5.46-6.87,8.07-7.28,1.02-.16,3.31,1.77,3.55,2.72.36,1.36-.48,3.03-.62,3.64-.22.85-3.91.73-3.13-1.34.34-.89,1.77-3.66.74-3.52-4.33.53-10.62,11.61-12.58,15.31.02.2-2.23.63-2.89-1.52-.06-.3-.06-.57,0-.81.84-2.74,5.88-14.64,5.88-14.64.1-.2.44-.3.86-.3,1.36,0,3.71,1.02,2.43,3.07Z"/>
        <path class="cls-2" d="M230.41,225.72c-1.04,1.91-3.67,7.56-6.58,13.32,3.61-2.36,7.27-5.49,10.52-9.64.26-.35.78-.41,1.12-.16.34.26.4.75.14,1.08-4.03,5.18-8.71,8.82-13.11,11.36-2.87,5.61-8.17,16.32-9.91,17.79-.76.65-2.85,1.2-3.93.79-1.67-.63-5.09-13.3-5.71-15.78-.16-.65.1-1.54,1.06-1.83,1.73-.53,8.28,2.2,13.32-.05,1.42-2.93,2.97-6.18,4.38-9.19-2.55,3.4-5.24,6.34-6.74,6.2-1.71-.16-3.17-2.76-2.75-4.11.96-3.17,4.64-11.02,4.64-11.02.46-.94,4.96.12,3.17,3.19-1.08,1.85-3.85,6.83-4.54,8.6-.18.45-.22.75-.18.93.38,1.1,8.45-8.82,10.84-13.13.18-.37.36-.69.48-.96.08-.14.16-.28.2-.39.12-.06.28-.08.46-.08,1.36,0,3.93,1.59,3.11,3.09ZM204.96,244.03c.42,2.48,3.67,13.79,4.55,13.91.42.04,4.56-8.74,6.78-13.21-4.68,1.89-10.13-.88-11.33-.7Z"/>
        <path class="cls-2" d="M248.97,226.62c.18.14.32.26.4.37.6.41.84,1.1.22,2.18-1.02,1.85-2.93,5.31-3.59,7.09-1.59,4.35,10.01-5.2,10.82-5.92,1.42-1.16,2.41.04,1,1.2-2.75,2.58-7.91,6.51-11.4,7.93-2.01.87-4.15-2.4-3.69-3.98.38-1.42,1.04-3.25,1.61-4.82-2.55,3.76-6.1,8.78-7.99,9.05-1.37.22-4.46-1.95-4.13-3.44.08-5.14,3.63-12.14,9.91-12.12,1.99,0,4.28.73,6.84,2.46ZM237.43,235.88c2.65-2.44,6.92-7.77,8.49-9.72-.46-.16-.92-.22-1.36-.22-5.8,0-9.9,12.5-7.13,9.94Z"/>
        <path class="cls-2" d="M264.09,238c-.32,1-1.4,1.71-2.39,1.59-1-.1-1.36-1.34-1.04-2.34.34-1.02,1.14-1.46,1.89-1.46,1.04-.02,1.99.83,1.53,2.2Z"/>
      </g>
    </g>
  </g>
</svg>